<?xml version="1.0" encoding="UTF-8"?>
<!DOCTYPE svg PUBLIC "-//W3C//DTD SVG 1.1//EN" "http://www.w3.org/Graphics/SVG/1.1/DTD/svg11.dtd">
<!-- Creator: CorelDRAW X8 -->
<svg xmlns="http://www.w3.org/2000/svg" xml:space="preserve" width="40.3348mm" height="12.4948mm" version="1.1" style="shape-rendering:geometricPrecision; text-rendering:geometricPrecision; image-rendering:optimizeQuality; fill-rule:evenodd; clip-rule:evenodd"
viewBox="0 0 4711 1459"
 xmlns:xlink="http://www.w3.org/1999/xlink">
 <defs>
  <style type="text/css">
   <![CDATA[
    .fil0 {fill:#F58634}
    .fil1 {fill:#FF9D57}
    .fil2 {fill:#FEFEFE;fill-rule:nonzero}
   ]]>
  </style>
 </defs>
 <g id="Camada_x0020_1">
  <metadata id="CorelCorpID_0Corel-Layer"/>
  <polygon class="fil0" points="681,0 1021,197 1362,393 1362,786 1362,1179 1021,1376 876,1459 681,1346 485,1459 340,1376 0,1179 0,786 0,393 340,197 "/>
  <polygon class="fil1" points="681,0 874,111 681,223 488,111 "/>
  <path class="fil2" d="M506 1018l157 -366 41 0 0 -107 -175 0 0 107 -54 138 -53 -138 0 -107 -176 0 0 107 42 0 157 366 61 0zm421 -288c-44,-4 -73,-11 -73,-40l0 -46 129 0 0 46 114 0c2,-103 -88,-155 -179,-155 -98,0 -185,52 -185,155 0,100 87,132 173,138 35,2 86,5 86,46l0 47 -144 0 0 -47 -120 0c-2,104 94,155 194,155 95,0 193,-51 193,-151 0,-113 -88,-138 -188,-148l0 0z"/>
  <g id="_2730593560256">
   <path class="fil2" d="M1809 380c14,-10 25,-34 25,-55 0,-59 -41,-97 -100,-97l-137 0 0 316 150 0c66,0 100,-41 100,-97 0,-28 -13,-53 -38,-67l0 0zm-132 -83l51 0c18,0 25,15 25,28 0,12 -8,25 -25,25l-51 0 0 -53zm88 153c0,13 -7,24 -23,24l-65 0 0 -52 62 0c15,0 26,10 26,28zm263 -229c-82,0 -163,57 -163,166 0,110 81,165 163,165 81,0 163,-55 163,-165 0,-109 -80,-166 -162,-166l-1 0zm0 253c-40,0 -81,-29 -81,-87 0,-58 41,-86 81,-86 41,0 81,28 81,86 0,58 -41,87 -81,87zm228 -246l-42 0 0 72 40 0 0 173 -40 0 0 71 160 0 0 -71 -40 0 0 -173 40 0 0 -72 -43 0 0 33 -75 0 0 -33zm151 316l219 0 0 -81 -139 0 0 -235 -80 0 0 316zm465 -316l-217 0 0 316 217 0 0 -75 -137 0 0 -52 130 0 0 -71 -130 0 0 -46 137 0 0 -72zm174 0l-136 0 0 316 80 0 0 -82 36 0 44 82 104 0 0 -71 -50 0 -14 -24c34,-18 52,-52 52,-101 0,-75 -40,-120 -116,-120l0 0zm0 163l-56 0 0 -91 56 0c24,0 37,18 37,45 0,26 -13,46 -37,46z"/>
   <path class="fil2" d="M1917 603l-325 0 0 755 191 0 0 -197 134 0c181,0 276,-95 276,-273 0,-177 -95,-285 -276,-285zm0 388l-134 0 0 -218 134 0c57,0 88,44 88,108 0,64 -31,110 -88,110zm356 367l522 0 0 -193 -331 0 0 -562 -191 0 0 755zm591 -755l0 755 191 0 0 -167 190 0 0 167 192 0 0 -755 -573 0zm381 423l-190 0 0 -253 190 0 0 253zm261 -423l0 194 212 0 0 561 192 0 0 -561 212 0 0 -194 -616 0zm1205 0l-520 0 0 755 520 0 0 -181 -329 0 0 -124 312 0 0 -170 -312 0 0 -110 329 0 0 -170z"/>
  </g>
 </g>
</svg>
